<svg width="18" height="18" viewBox="0 0 18 18" fill="none" xmlns="http://www.w3.org/2000/svg">
<path d="M0.96967 15.9697C0.676777 16.2626 0.676777 16.7374 0.96967 17.0303C1.26256 17.3232 1.73744 17.3232 2.03033 17.0303L0.96967 15.9697ZM9.53033 9.53033C9.82322 9.23744 9.82322 8.76256 9.53033 8.46967C9.23744 8.17678 8.76256 8.17678 8.46967 8.46967L9.53033 9.53033ZM8.46967 8.46967C8.17678 8.76256 8.17678 9.23744 8.46967 9.53033C8.76256 9.82322 9.23744 9.82322 9.53033 9.53033L8.46967 8.46967ZM17.0303 2.03033C17.3232 1.73744 17.3232 1.26256 17.0303 0.96967C16.7374 0.676777 16.2626 0.676777 15.9697 0.96967L17.0303 2.03033ZM9.53033 8.46967C9.23744 8.17678 8.76256 8.17678 8.46967 8.46967C8.17678 8.76256 8.17678 9.23744 8.46967 9.53033L9.53033 8.46967ZM15.9697 17.0303C16.2626 17.3232 16.7374 17.3232 17.0303 17.0303C17.3232 16.7374 17.3232 16.2626 17.0303 15.9697L15.9697 17.0303ZM8.46967 9.53033C8.76256 9.82322 9.23744 9.82322 9.53033 9.53033C9.82322 9.23744 9.82322 8.76256 9.53033 8.46967L8.46967 9.53033ZM2.03033 0.96967C1.73744 0.676777 1.26256 0.676777 0.96967 0.96967C0.676777 1.26256 0.676777 1.73744 0.96967 2.03033L2.03033 0.96967ZM2.03033 17.0303L9.53033 9.53033L8.46967 8.46967L0.96967 15.9697L2.03033 17.0303ZM9.53033 9.53033L17.0303 2.03033L15.9697 0.96967L8.46967 8.46967L9.53033 9.53033ZM8.46967 9.53033L15.9697 17.0303L17.0303 15.9697L9.53033 8.46967L8.46967 9.53033ZM9.53033 8.46967L2.03033 0.96967L0.96967 2.03033L8.46967 9.53033L9.53033 8.46967Z" fill="white"/>
</svg>
