<svg id="train" data-name="Layer 1" xmlns="http://www.w3.org/2000/svg" width="2234.73" height="1727.98" xmlns:xlink="http://www.w3.org/1999/xlink" viewBox="0 0 2234.73 1727.98">
      <defs>
        <style>
        .cls-1-e {
          stroke-dasharray: 0 0 7.98 3.99;
        }
        .cls-1-e,
        .cls-2-e,
        .cls-3-e {
          stroke: #b59460;
          stroke-width: 2px;
        }
        .cls-1-e,
        .cls-2-e,
        .cls-3-e,
        .cls-4-e,
        .cls-5-e {
          fill: none;
        }
        .cls-1-e,
        .cls-2-e,
        .cls-3-e,
        .cls-5-e {
          stroke-miterlimit: 10;
        }
        .cls-6-e {
          fill: url(#linear-gradient);
        }
        .cls-6-e,
        .cls-7-e,
        .cls-8-e,
        .cls-4-e,
        .cls-9-e {
          stroke-width: 0px;
        }
        .cls-7-e {
          fill: #61ae45;
        }
        .cls-7-e,
        .cls-5-e {
          opacity: 0.4;
        }
        .cls-8-e {
          fill: #ccc296;
        }
        .cls-3-e {
          stroke-dasharray: 0 0 8 4;
        }
        .cls-9-e {
          fill: #f0efef;
        }
        .cls-10-e {
          clip-path: url(#clippath);
        }
        .cls-5-e {
          stroke: #61ae45;
          stroke-width: 4px;
        }

        .st-line{
            animation: StrokeLine 3s infinite linear;
        }

        @keyframes StrokeLine{
          0%{stroke-dashoffset:0}
          100%{stroke-dashoffset:100}
        }
        @keyframes zoomStation{
          0%{transform:translate3d(1131.63px, 252.76px, 0) scale(1) translate3d(-1131.63px, -252.76px, 0)}
          100%{transform:translate3d(1131.63px, 252.76px, 0) scale(1.5) translate3d(-1131.63px, -252.76px, 0)}
        }

        </style>
        <clipPath id="clippath">
          <rect class="cls-4-e" width="2234.73" height="1727.98"></rect>
        </clipPath>
        <linearGradient id="linear-gradient" x1="815.71" y1="1019.7" x2="828.31" y2="1019.7" gradientUnits="userSpaceOnUse">
          <stop offset="0" stop-color="#9c524c"></stop>
          <stop offset=".03" stop-color="#9c524c"></stop>
          <stop offset=".55" stop-color="#eb946c"></stop>
          <stop offset=".63" stop-color="#e48e69"></stop>
          <stop offset=".76" stop-color="#d17e61"></stop>
          <stop offset=".91" stop-color="#b36555"></stop>
          <stop offset="1" stop-color="#9c524c"></stop>
        </linearGradient>
      </defs>
      <g class="cls-10-e">
        <g>
          <g>
            <line class="st-line cls-2-e" x1="1418.57" y1="52.92" x2="1414.75" y2="51.73"></line>
            <path class="st-line cls-1-e" d="M1410.94,50.54l-77.79-24.25c-4.11-.42-8.25.49-11.8,2.6l-41.64,26.25-32.43,19.95-29.22,24.03-13.12,16.16-17.64,29.44-7.32,13.62s-178.15,308.32-179.8,317.15c-.69,3.72-14.37,34.08-15.46,40.55-.91,5.41-43.12,180.81-49.36,203.04-8.37,29.79-82.34,50.24-98.3,53.74-33.38,7.33-381.1,71.67-381.1,71.67-6.39,1-22.64,5.34-28.56,8.3-14.79,7.39-27.03,18.36-39.83,28.8-2.53,2.27-5.06,4.54-7.59,6.82-1.65,1.49-3.29,3-4.97,4.46-3.74,3.25-5.78,8.54-8.21,12.77-1.77,3.09-2.72,8.42-3.23,12.08-.26,1.86-.34,3.74-.31,5.62.34,18-2.07,35.39-4.4,53.07l-4.1,27.58c-.48,3.22-1.91,6.22-4.1,8.63l-115.35,126.43-91.23,99.75"></path>
            <line class="st-line cls-2-e" x1="142.74" y1="1240.26" x2="140.04" y2="1243.21"></line>
          </g>
          <g>
            <polygon class="st-line cls-7-e" points="2035.42 1572.69 2020.43 1578.1 2032.61 1588.38 2035.42 1572.69"></polygon>
            <path class="st-line cls-5-e" d="M1898.63,42.23c.32.88,38.74,107.68,38.7,111.8-.27,26.04-.38,131.82-.38,131.82l-89.65,452.92,14.6,306.78s-6.97,71.23,10.53,91.41l154.93,438.65"></path>
          </g>
          <g>
            <polyline class="st-line cls-3-e" points="921.25 945.65 870.92 994.58 770.51 1047.92 481.06 1201.37 322.54 1240.52 267.02 1251.88 158.44 1247.45"></polyline>
            <polyline class="st-line cls-3-e" points="1481.88 891.47 1321.06 887.79 1108.44 894.3 1002.02 919.05 930.84 941.59"></polyline>
            <path class="st-line cls-3-e" d="M1489.48,892.53c21.64,4.54,340.83,68.4,357.26,72.62,14.8,3.8,27.71,9.76,42.58,13.57,2.31.59,2.55,2.33,4.46,4.1,4.21,3.9,4.09,9.45,4,14.87-.06,4.02.53,79.84,1.11,83.81,1.05,7.19,5.33,11.29,8.66,16.85,1.1-.02,6.33,10.29,7.23,11.78,2.78,4.59,5.3,9.47,7.88,14.26,5.53,10.25,11.05,20.51,16.56,30.78,10.84,20.19,17.04,42.91,27.8,63.16,19.87,37.4,60.57,180,95.89,195.12,12.06,5.16,41.7-1.07,53.32-5.94"></path>
            <g>
              <path class="st-line cls-6-e" d="M828.31,1019.7c0,3.48-2.82,6.3-6.3,6.3s-6.3-2.82-6.3-6.3,2.82-6.3,6.3-6.3,6.3,2.82,6.3,6.3Z"></path>
              <g>
                <path class="st-line cls-9-e" d="M823.43,1021.79c.48-.1.84-.51.84-1v-3.16c0-.56-.48-1.02-1.08-1.02h-2.35c-.6,0-1.08.46-1.08,1.02v3.16c0,.49.36.89.84,1l-1.21,1.75h.74l.84-1.2h2.09l.84,1.2h.74l-1.21-1.75ZM821.36,1017c0-.08.06-.14.14-.14h1.02c.08,0,.14.06.14.14v.34c0,.08-.06.14-.14.14h-1.02c-.08,0-.14-.06-.14-.14v-.34ZM820.74,1021.5c-.25,0-.45-.2-.45-.44s.2-.44.45-.44.45.2.45.44-.2.44-.45.44ZM820.64,1019.32c-.2,0-.36-.16-.36-.35v-.92c0-.19.16-.35.36-.35h2.75c.2,0,.36.16.36.35v.92c0,.19-.16.35-.36.35h-2.75ZM822.83,1021.06c0-.24.2-.44.45-.44s.45.2.45.44-.2.44-.45.44-.45-.2-.45-.44ZM822.39,1016.46c.17,0,.3-.13.3-.29s-.14-.29-.3-.29-.3.13-.3.29.14.29.3.29ZM821.63,1016.46c.17,0,.3-.13.3-.29s-.14-.29-.3-.29-.3.13-.3.29.14.29.3.29Z"></path>
                <rect class="st-line cls-9-e" x="821.9" y="1017.69" width=".23" height="1.89"></rect>
              </g>
            </g>
            <g>
              <path class="st-line cls-8-e" d="M784,1004.82c0,1.25-.41,2.29-1.24,3.12-.83.83-1.86,1.25-3.11,1.25s-2.22-.41-3.06-1.23c-.84-.83-1.26-1.84-1.26-3.04s.43-2.21,1.28-3.01c.84-.78,1.86-1.18,3.07-1.18.9,0,1.74.26,2.51.79.8.54,1.32,1.24,1.56,2.09h-2.33c-.39-.7-.99-1.05-1.79-1.05-.65,0-1.19.23-1.61.7-.41.45-.61,1.01-.61,1.67s.2,1.26.6,1.72c.42.48.96.73,1.64.73.47,0,.87-.11,1.21-.32.37-.23.61-.56.73-.99h-2.43v-1.66h4.83c0,.06,0,.14.01.21v.21Z"></path>
              <path class="st-line cls-8-e" d="M789.58,1009.02v-.66h-.02c-.15.29-.41.52-.77.67-.31.13-.65.2-1.02.2-.92,0-1.67-.32-2.24-.95-.55-.62-.83-1.39-.83-2.31s.28-1.68.84-2.3c.58-.64,1.32-.96,2.22-.96.37,0,.7.07,1.01.2.34.15.6.37.77.66h.02v-.65h1.83v6.11h-1.83ZM789.14,1004.85c-.29-.29-.66-.44-1.1-.44s-.8.15-1.09.46c-.28.3-.42.67-.42,1.11s.15.79.44,1.08c.3.3.66.45,1.08.45s.81-.15,1.1-.45c.29-.3.43-.67.43-1.11s-.15-.82-.44-1.11Z"></path>
              <path class="st-line cls-8-e" d="M759.23,1013.71v6.32h-2.08v-6.32h-1.61v-1.83h5.28v1.83h-1.6Z"></path>
              <path class="st-line cls-8-e" d="M765.41,1020.02v-3.32c0-.38-.06-.68-.19-.89-.16-.26-.42-.39-.79-.39s-.64.11-.81.34c-.14.2-.21.49-.21.87v3.39h-1.83v-8.14h1.83v2.6h.02c.15-.27.38-.47.68-.6.26-.11.56-.17.9-.17.72,0,1.28.22,1.66.67.26.3.43.65.5,1.06.03.16.05.35.06.57,0,.09,0,.19.01.3v3.72h-1.83Z"></path>
              <path class="st-line cls-8-e" d="M772.46,1020.02v-.65h-.02c-.15.31-.37.54-.66.67-.25.12-.56.18-.93.18-.78,0-1.38-.26-1.79-.77-.23-.29-.38-.58-.46-.89-.06-.23-.09-.56-.09-.99v-3.65h1.83v3.38c0,.39.06.68.18.87.15.23.42.35.79.35.7,0,1.05-.41,1.05-1.24v-3.36h1.83v6.11h-1.73ZM772.73,1012.04c-.04.07-.09.14-.16.21-.05.06-.11.12-.18.19l-.18.17c-.07.06-.13.12-.17.17-.11.13-.17.25-.18.37h-.93c0-.16.05-.33.15-.48.04-.06.09-.12.15-.19.04-.05.1-.11.17-.18l.17-.17c.06-.06.11-.12.15-.17.1-.12.15-.24.15-.35,0-.22-.1-.33-.31-.33-.15,0-.25.05-.31.16-.04.07-.06.19-.06.35h-.98s0-.03,0-.05v-.05c0-.39.14-.72.41-.97.27-.24.6-.37,1-.37.54,0,.93.21,1.16.64.09.16.13.33.13.49,0,.2-.05.38-.16.55Z"></path>
              <path class="st-line cls-8-e" d="M782.04,1013.71v6.32h-2.08v-6.32h-1.61v-1.83h5.28v1.83h-1.6Z"></path>
              <path class="st-line cls-8-e" d="M788.21,1020.02v-3.32c0-.38-.06-.68-.19-.89-.16-.26-.42-.39-.79-.39s-.64.11-.81.34c-.14.2-.21.49-.21.87v3.39h-1.83v-8.14h1.83v2.6h.02c.15-.27.38-.47.68-.6.26-.11.56-.17.9-.17.72,0,1.28.22,1.66.67.26.3.43.65.5,1.06.03.16.05.35.06.57,0,.09,0,.19.01.3v3.72h-1.83Z"></path>
              <path class="st-line cls-8-e" d="M791.33,1013.27v-1.39h1.83v1.39h-1.83ZM791.33,1020.02v-6.11h1.83v6.11h-1.83Z"></path>
              <path class="st-line cls-8-e" d="M800.53,1017.53h-4.58c.11.77.59,1.15,1.43,1.15.44,0,.81-.19,1.11-.57h1.87c-.27.63-.66,1.14-1.17,1.51-.54.4-1.14.6-1.81.6-.89,0-1.65-.32-2.28-.95-.63-.63-.95-1.39-.95-2.28s.31-1.66.93-2.3c.63-.65,1.38-.98,2.27-.98s1.7.33,2.31.98c.6.64.91,1.43.91,2.36,0,.18-.01.34-.04.48ZM797.89,1012.98l-.5-.64-.5.64h-1.78l1.72-1.83h1.19l1.65,1.83h-1.76ZM798.74,1016.3c-.15-.7-.61-1.05-1.39-1.05s-1.24.35-1.39,1.05h2.77Z"></path>
              <path class="st-line cls-8-e" d="M809.13,1020.02v-3.24c0-.42-.05-.73-.15-.93-.14-.28-.4-.42-.78-.42s-.65.12-.81.37c-.14.2-.2.5-.2.89v3.33h-1.83v-3.32c0-.38-.06-.67-.17-.88-.15-.27-.4-.4-.75-.4-.39,0-.66.14-.83.41-.13.21-.2.53-.2.95v3.24h-1.83v-6.11h1.7v.65h.03c.16-.3.4-.52.71-.66.28-.13.6-.2.97-.2.78,0,1.37.36,1.76,1.09.46-.73,1.1-1.09,1.93-1.09.67,0,1.21.21,1.61.62.31.31.5.68.59,1.1.03.17.05.37.06.61,0,.09,0,.2,0,.32v3.67h-1.83Z"></path>
            </g>
          </g>
        </g>
      </g>
    </svg>